<svg xmlns="http://www.w3.org/2000/svg" width="24" height="24" version="1.0" id="sun"><path fill="#010101" d="M12.001 15.517a3.665 3.665 0 0 1-3.664-3.658c0-2.001 1.644-3.629 3.664-3.629a3.636 3.636 0 0 1 3.635 3.629c0 2.017-1.63 3.658-3.635 3.658zm0-6.588c-1.635 0-2.965 1.314-2.965 2.93a2.965 2.965 0 0 0 2.965 2.959c1.618 0 2.936-1.327 2.936-2.959a2.937 2.937 0 0 0-2.936-2.93zm0-1.725a.35.35 0 0 1-.35-.35v-1.3a.35.35 0 1 1 .7 0v1.301a.35.35 0 0 1-.35.349zm0 11.592a.35.35 0 0 1-.35-.35v-1.301a.35.35 0 1 1 .7 0v1.301a.35.35 0 0 1-.35.35zm6.455-6.445h-1.303a.35.35 0 1 1 0-.7h1.303a.35.35 0 1 1 0 .7zm-11.639 0H5.544a.35.35 0 1 1 0-.7h1.273a.35.35 0 1 1 0 .7zm9.743 4.55a.344.344 0 0 1-.243-.098l-.936-.904a.35.35 0 0 1 .486-.504l.936.904a.35.35 0 0 1-.243.602zM8.347 8.702a.341.341 0 0 1-.243-.099l-.934-.904a.347.347 0 0 1-.008-.494.347.347 0 0 1 .494-.008l.934.905a.347.347 0 0 1-.243.6zm-.934 8.199a.347.347 0 0 1-.243-.6l.934-.904a.347.347 0 0 1 .494.008.347.347 0 0 1-.008.494l-.934.904a.344.344 0 0 1-.243.098zm8.211-8.199a.349.349 0 0 1-.243-.601l.936-.904a.35.35 0 0 1 .486.504l-.936.904a.348.348 0 0 1-.243.097z"></path><path fill="#010101" d="M11.944 13.808c-.5 0-1-.19-1.38-.571-.137-.137-.137-.357 0-.494s.357-.137.494 0a1.254 1.254 0 0 0 1.771 0c.137-.137.357-.137.494 0s.137.357 0 .494c-.379.38-.879.571-1.379.571zm-1.151-2.138c-.235 0-.476-.086-.668-.258a.35.35 0 1 1 .467-.521c.117.104.273.108.369.014.137-.137.357-.137.494 0s.137.357 0 .494a.931.931 0 0 1-.662.271zm2.465.003c-.234 0-.473-.086-.669-.26a.349.349 0 0 1-.029-.494.348.348 0 0 1 .494-.029c.114.102.275.108.37.015.137-.137.357-.137.494 0s.137.357 0 .494a.927.927 0 0 1-.66.274z"></path></svg>