<svg xmlns="http://www.w3.org/2000/svg" width="24" height="24" version="1.0" id="moon"><path fill="#010101" d="M11.651 13.87a3.687 3.687 0 0 1-1.662-.399 3.784 3.784 0 0 1-1.223-1.003.349.349 0 0 1-.028-.385.356.356 0 0 1 .344-.177 2.922 2.922 0 0 0 2.907-1.567c.53-1.01.41-2.261-.306-3.187a.348.348 0 0 1-.032-.38.334.334 0 0 1 .334-.184c.414.03.881.169 1.35.404 1.774.932 2.477 3.134 1.571 4.911a3.665 3.665 0 0 1-3.255 1.967zm-1.755-1.281c.13.095.27.183.417.262a2.97 2.97 0 0 0 3.973-1.268 2.978 2.978 0 0 0-1.27-3.967 3.919 3.919 0 0 0-.33-.146 3.647 3.647 0 0 1-.076 3.195 3.629 3.629 0 0 1-2.714 1.924zM14.878 15.884H9.61a.35.35 0 0 1 0-.7h5.268a.35.35 0 0 1 0 .7zM13.519 17.412H10.97a.35.35 0 0 1 0-.7h2.549a.35.35 0 0 1 0 .7z"></path></svg>