<svg xmlns="http://www.w3.org/2000/svg" width="24" height="24" version="1.0" id="weather"><path fill="#010101" d="M16.404 19.829h-1.219a.35.35 0 0 1 0-.7h5.777c1.288-.075 2.312-1.164 2.312-2.478a2.483 2.483 0 0 0-2.482-2.478c-.133 0-.266.021-.415.042-.11.015-.255-.015-.333-.093s-.151-.182-.136-.291l.014-.1c.02-.14.039-.265.039-.39 0-2.13-1.723-3.863-3.841-3.863a3.822 3.822 0 0 0-3.71 2.902.35.35 0 0 1-.678-.17 4.521 4.521 0 0 1 4.389-3.432c2.504 0 4.542 2.047 4.542 4.563 0 .045-.002.09-.005.135a3.184 3.184 0 0 1 3.317 3.173 3.181 3.181 0 0 1-2.992 3.177l-4.579.003z"></path><path fill="#010101" d="M8.503 10.837a.35.35 0 0 1-.334-.246 3.62 3.62 0 0 1 .258-2.785 3.614 3.614 0 0 1 2.153-1.782c1.909-.595 3.944.487 4.542 2.408.097.287.127.547.156.799a.35.35 0 0 1-.696.08 3.171 3.171 0 0 0-.126-.664c-.486-1.561-2.133-2.434-3.67-1.955a2.92 2.92 0 0 0-1.741 1.44 2.926 2.926 0 0 0-.209 2.25.349.349 0 0 1-.333.455zm3.143-5.994a.35.35 0 0 1-.35-.35V3.192a.35.35 0 0 1 .7 0v1.301a.35.35 0 0 1-.35.35zM6.492 9.989H5.189a.35.35 0 0 1 0-.7h1.303a.35.35 0 0 1 0 .7zm1.502-3.648a.346.346 0 0 1-.247-.103l-.907-.904a.35.35 0 1 1 .495-.495l.906.905a.35.35 0 0 1-.247.597zm7.304 0a.35.35 0 0 1-.248-.598l.906-.905a.35.35 0 1 1 .495.495l-.906.905a.343.343 0 0 1-.247.103z"></path><path fill="#010101" d="M12.949 21.158H3.123a.357.357 0 0 1-.161-.039C1.307 20.94.025 19.532.025 17.867c0-1.814 1.491-3.291 3.324-3.291.07 0 .142 0 .217.003.049-2.474 2.067-4.471 4.541-4.471 2.503 0 4.541 2.047 4.541 4.563 0 .046-.001.091-.004.135a3.184 3.184 0 0 1 3.317 3.173 3.181 3.181 0 0 1-2.992 3.177c-.007.002-.013.002-.02.002zm-9.717-.7h9.707a2.48 2.48 0 0 0-.16-4.956c-.132 0-.265.021-.414.042a.42.42 0 0 1-.337-.097c-.078-.08-.15-.188-.132-.297.025-.151.052-.302.052-.479 0-2.13-1.723-3.863-3.84-3.863-2.118 0-3.841 1.733-3.841 3.863 0 .039.006.072.011.105.009.065.018.131.018.206a.35.35 0 0 1-.446.336c-.151-.043-.32-.043-.499-.043-1.447 0-2.624 1.162-2.624 2.59 0 1.336 1.052 2.462 2.395 2.563a.472.472 0 0 1 .11.03z"></path></svg>