<svg xmlns="http://www.w3.org/2000/svg" width="24" height="24" version="1.0" id="weather"><path fill="#010101" d="M12.389 15.789a3.96 3.96 0 0 1-2.507-.902c-1.653-1.401-1.876-3.88-.501-5.529 1.366-1.645 3.836-1.883 5.501-.528.217.188.457.415.666.727a.35.35 0 0 1-.582.39 2.912 2.912 0 0 0-.534-.581 3.24 3.24 0 0 0-4.513.44c-1.131 1.355-.946 3.393.41 4.542a3.227 3.227 0 0 0 4.546-.438.35.35 0 0 1 .537.449 3.926 3.926 0 0 1-3.023 1.43zm.007-8.996a.35.35 0 0 1-.35-.35V5.029a.35.35 0 1 1 .7 0v1.414a.35.35 0 0 1-.35.35zm0 12.528a.35.35 0 0 1-.35-.35v-1.387a.35.35 0 1 1 .7 0v1.387a.351.351 0 0 1-.35.35zm-5.579-6.957H5.401a.35.35 0 0 1 0-.7h1.416a.35.35 0 0 1 0 .7zm10.506 4.92a.344.344 0 0 1-.247-.103l-.99-.988a.35.35 0 1 1 .494-.495l.99.988a.35.35 0 0 1-.247.598zm-8.89-8.879a.35.35 0 0 1-.247-.102l-.993-.989a.351.351 0 0 1-.001-.495.353.353 0 0 1 .496-.001l.992.989a.35.35 0 0 1-.247.598zm7.9 0a.35.35 0 0 1-.247-.598l.99-.988a.35.35 0 1 1 .494.495l-.99.988a.344.344 0 0 1-.247.103z"></path><path fill="#010101" d="M18.173 14.512h-4.418a.347.347 0 0 1-.175-.047 1.65 1.65 0 0 1-1.392-1.631c0-.884.711-1.609 1.602-1.649a2.239 2.239 0 0 1 2.23-1.953 2.22 2.22 0 0 1 2.214 2.069c.842.06 1.507.75 1.507 1.59 0 .853-.662 1.55-1.54 1.621h-.028zm-4.282-.7h4.268c.504-.047.884-.44.884-.921 0-.493-.415-.894-.926-.894a1.84 1.84 0 0 1-.254.027c-.112 0-.218-.054-.283-.145s-.084-.208-.05-.314c.01-.029.011-.041.011-.116a1.52 1.52 0 0 0-1.52-1.517c-.867 0-1.547.667-1.547 1.517v.113c0 .256-.282.373-.537.33h-.02c-.599 0-1.029.423-1.029.941 0 .508.377.909.896.952a.391.391 0 0 1 .107.027zm-3.619 4.858H5.854a.347.347 0 0 1-.178-.049c-.818-.133-1.418-.798-1.418-1.602 0-.883.709-1.606 1.598-1.649.119-1.112 1.077-1.982 2.236-1.982 1.188 0 2.164.916 2.241 2.069a1.615 1.615 0 0 1 1.478 1.619 1.59 1.59 0 0 1-1.524 1.594h-.015zm-4.277-.7h4.27a.893.893 0 0 0 .848-.894c0-.509-.402-.923-.896-.923-.13.02-.192.029-.255.029a.35.35 0 0 1-.35-.35.92.92 0 0 1 .021-.183 1.515 1.515 0 0 0-1.539-1.561c-.868 0-1.549.667-1.549 1.517.012-.014.029.037.029.113a.35.35 0 0 1-.35.35H5.94c-.541 0-.982.426-.982.951 0 .492.389.88.925.923a.355.355 0 0 1 .112.028z"></path></svg>