<svg xmlns="http://www.w3.org/2000/svg" width="24" height="24" version="1.0" id="fullmoon"><path fill="#010101" d="M10.632 16.19a4.13 4.13 0 0 1-2.577-.896 4.126 4.126 0 0 1-1.591-2.748 4.221 4.221 0 0 1 .852-3.142c1.421-1.819 4.067-2.14 5.9-.714.329.231.585.532.77.768a.35.35 0 1 1-.551.431c-.155-.197-.367-.448-.635-.637-1.543-1.199-3.748-.936-4.932.58a3.528 3.528 0 0 0-.71 2.621c.12.912.592 1.725 1.327 2.287 1.503 1.195 3.71.93 4.922-.59a.346.346 0 0 1 .491-.056c.151.12.177.341.056.491a4.239 4.239 0 0 1-3.322 1.605z"></path><path fill="#010101" d="M8.62 13.797c-.271 0-.568-.146-.778-.382-.373-.421-.425-.921-.128-1.217.284-.284.873-.174 1.217.214.211.209.339.502.326.769a.637.637 0 0 1-.223.468.6.6 0 0 1-.414.148zm-.381-1.045c.02.051.057.121.125.197a.47.47 0 0 0 .215.141c-.036-.028-.071-.111-.157-.197a.555.555 0 0 0-.183-.141z"></path><path fill="#010101" d="M9.297 13.57a.573.573 0 0 1-.424-.195.543.543 0 0 1-.185-.352.455.455 0 0 1 .13-.372l.103-.103.222-.03c.173 0 .343.094.441.244a.533.533 0 0 1 .145.367v.146l-.219.245a.467.467 0 0 1-.213.05z"></path><path fill="#010101" d="M9.396 14.419c-.188 0-.384-.091-.549-.255a.772.772 0 0 1-.235-.539c0-.149.054-.285.151-.382.211-.214.643-.161.919.115.236.29.324.682.083.92a.579.579 0 0 1-.369.141zm1.815-3.964c-.173 0-.353-.045-.52-.129-.275-.137-.476-.342-.55-.562a.577.577 0 0 1 .026-.444c.162-.33.668-.435 1.123-.253.294.145.5.361.576.59a.598.598 0 0 1-.026.458c-.104.211-.34.34-.629.34zm-.72 1.278a.838.838 0 0 1-.311-.065.647.647 0 0 1-.384-.399.473.473 0 0 1 .029-.361c.109-.244.43-.333.757-.2.24.14.359.286.396.448l.032.147-.056.117.001.001c-.048.15-.194.312-.464.312zm-.181-.574c-.037.087-.016.178.012.209.011-.022.086-.068.132-.15a.233.233 0 0 0 .016-.142l.022-.043c-.053 0-.136.044-.182.126zm1.287 3.684a.856.856 0 0 1-.311-.064.654.654 0 0 1-.386-.398.472.472 0 0 1 .053-.402c.038-.158.391-.297.733-.16a.654.654 0 0 1 .386.398.472.472 0 0 1-.053.402c-.026.109-.203.224-.422.224z"></path><path fill="#010101" d="M16.003 14.719h-4.418a.357.357 0 0 1-.18-.049c-.801-.136-1.387-.801-1.387-1.602 0-.898.695-1.608 1.598-1.649a2.24 2.24 0 0 1 2.234-1.981 2.22 2.22 0 0 1 2.214 2.068 1.626 1.626 0 0 1 1.507 1.619c0 .842-.696 1.557-1.554 1.594h-.014zm-4.277-.699h4.27c.483-.024.877-.425.877-.895a.915.915 0 0 0-.926-.924 1.59 1.59 0 0 1-.254.029.349.349 0 0 1-.334-.456c.011-.032.012-.044.012-.12a1.52 1.52 0 0 0-1.52-1.518c-.867 0-1.547.667-1.547 1.518v.113a.35.35 0 0 1-.35.35h-.256c-.55 0-.98.418-.98.951 0 .483.386.88.896.923a.337.337 0 0 1 .112.029z"></path></svg>