<svg xmlns="http://www.w3.org/2000/svg" width="24" height="24" version="1.0" id="weather"><path fill="#010101" d="M16.956 14.641H7.157a.343.343 0 0 1-.153-.038c-1.675-.175-2.972-1.585-2.972-3.253 0-1.814 1.491-3.291 3.324-3.291.075 0 .146 0 .218.002a4.57 4.57 0 0 1 4.567-4.47c2.504 0 4.541 2.047 4.541 4.563 0 .046-.002.091-.006.134a3 3 0 0 1 .137-.004c1.739 0 3.154 1.426 3.154 3.178 0 1.715-1.286 3.081-2.992 3.177a.1.1 0 0 1-.019.002zm-9.688-.701h9.679a2.45 2.45 0 0 0 2.322-2.478c0-1.366-1.102-2.478-2.455-2.478-.176 0-.328.026-.479.052a.35.35 0 0 1-.407-.345c0-.1.014-.2.03-.304.013-.074.026-.15.026-.233 0-2.13-1.724-3.863-3.842-3.863a3.87 3.87 0 0 0-3.869 3.863c0 .039.006.073.011.107.008.066.016.131.016.205a.35.35 0 0 1-.139.28.346.346 0 0 1-.307.056c-.15-.043-.289-.043-.498-.043-1.447 0-2.625 1.162-2.625 2.59 0 1.359 1.042 2.461 2.424 2.563.04.004.078.014.113.028zm-.507 3.783a.35.35 0 0 1-.247-.598l1.162-1.159a.35.35 0 1 1 .494.495L7.008 17.62a.35.35 0 0 1-.247.103zm2.152 0a.35.35 0 0 1-.247-.598l1.162-1.159a.35.35 0 1 1 .494.495L9.16 17.62a.348.348 0 0 1-.247.103zm2.152 0a.35.35 0 0 1-.247-.598l1.162-1.159a.35.35 0 1 1 .494.495l-1.162 1.159a.348.348 0 0 1-.247.103zm2.153 0a.35.35 0 0 1-.247-.598l1.162-1.159a.35.35 0 1 1 .494.495l-1.162 1.159a.35.35 0 0 1-.247.103zm2.152 0a.35.35 0 0 1-.247-.598l1.16-1.159a.35.35 0 1 1 .494.495l-1.16 1.159a.348.348 0 0 1-.247.103zm-9.119 2.686a.35.35 0 0 1-.247-.598l1.162-1.159a.35.35 0 1 1 .494.495l-1.162 1.159a.344.344 0 0 1-.247.103zm2.152 0a.35.35 0 0 1-.247-.598l1.162-1.159a.35.35 0 1 1 .494.495L8.65 20.306a.344.344 0 0 1-.247.103zm2.153 0a.35.35 0 0 1-.247-.598l1.162-1.159a.35.35 0 1 1 .494.495l-1.162 1.159a.346.346 0 0 1-.247.103zm2.152 0a.35.35 0 0 1-.247-.598l1.162-1.159a.35.35 0 1 1 .494.495l-1.162 1.159a.344.344 0 0 1-.247.103zm2.152 0a.35.35 0 0 1-.247-.598l1.16-1.159a.35.35 0 1 1 .494.495l-1.16 1.159a.344.344 0 0 1-.247.103z"></path></svg>