<svg xmlns="http://www.w3.org/2000/svg" width="24" height="24" version="1.0" id="snow"><path fill="#010101" d="M13.955 17.073a.346.346 0 0 1-.216-.075l-1.764-1.384-1.709 1.381a.35.35 0 0 1-.567-.229l-.278-2.24-2.186-.226a.35.35 0 0 1-.239-.564l1.386-1.762-1.384-1.734a.349.349 0 0 1 .234-.566l2.216-.251.251-2.184a.35.35 0 0 1 .566-.234l1.709 1.355 1.766-1.384a.351.351 0 0 1 .564.236l.252 2.211 2.213.251a.349.349 0 0 1 .234.566l-1.384 1.734 1.386 1.762a.35.35 0 0 1-.235.564l-2.189.252-.276 2.215a.35.35 0 0 1-.35.306zm-1.982-2.256a.35.35 0 0 1 .216.075l1.496 1.174.233-1.875a.35.35 0 0 1 .308-.304l1.841-.211-1.17-1.487a.349.349 0 0 1 .002-.435l1.162-1.457-1.861-.211a.35.35 0 0 1-.309-.308l-.213-1.866-1.49 1.168a.353.353 0 0 1-.434-.001l-1.433-1.136-.211 1.835a.35.35 0 0 1-.309.308l-1.863.211L9.1 11.754a.349.349 0 0 1 .002.435l-1.164 1.48 1.831.189a.352.352 0 0 1 .312.305l.234 1.892 1.437-1.16a.351.351 0 0 1 .221-.078z"></path><path fill="#010101" d="M12 17.835a.35.35 0 0 1-.35-.35V6.515a.35.35 0 1 1 .7 0v10.971a.35.35 0 0 1-.35.349z"></path><path fill="#010101" d="M17.494 12.35H6.506a.35.35 0 0 1 0-.7h10.988a.35.35 0 0 1 0 .7z"></path><path fill="#010101" d="M8.121 16.224a.35.35 0 0 1-.248-.598l7.758-7.776a.349.349 0 0 1 .495 0 .35.35 0 0 1 .001.495l-7.758 7.776a.347.347 0 0 1-.248.103z"></path><path fill="#010101" d="M15.879 16.224a.347.347 0 0 1-.248-.103L7.873 8.345a.35.35 0 0 1 .001-.495.35.35 0 0 1 .495 0l7.758 7.776a.35.35 0 0 1-.248.598z"></path></svg>