<svg xmlns="http://www.w3.org/2000/svg" width="24" height="24" version="1.0" id="weather"><path fill="#010101" d="M7.38 17.638h-.283c-.578 0-1.03-.602-1.03-1.37V8.38c0-.767.452-1.368 1.03-1.368h.283c.587 0 1.03.588 1.03 1.368v7.889c0 .78-.443 1.369-1.03 1.369zm-.283-9.926c-.131 0-.33.266-.33.667v7.889c0 .402.198.669.33.669h.283c.156 0 .33-.275.33-.669V8.38c0-.394-.174-.667-.33-.667h-.283z"></path><path fill="#010101" d="M10.41 14.753a.35.35 0 0 1-.285-.146l-2.35-3.281a.352.352 0 0 1 0-.408l2.35-3.279a.353.353 0 0 1 .489-.081.352.352 0 0 1 .081.489L8.49 11.122l2.204 3.078a.35.35 0 0 1-.284.553z"></path><path fill="#010101" d="M10.636 14.781c-.992 0-1.256-2.317-1.256-3.686 0-1.359.265-3.659 1.256-3.659 1.014 0 1.285 2.3 1.285 3.659 0 1.369-.271 3.686-1.285 3.686zm-.026-6.65c-.109.096-.53 1.09-.53 2.963 0 1.781.373 2.774.563 2.967.194-.179.578-1.158.578-2.967 0-1.898-.431-2.875-.611-2.963z"></path><path fill="#010101" d="M10.636 14.781a.35.35 0 0 1-.226-.617c.811-.686.811-2.137.811-3.096 0-1.422-.445-2.849-.714-2.956a.351.351 0 0 1-.208-.417.352.352 0 0 1 .391-.254l6.683 1.018a.351.351 0 0 1 .235.147c.682.987.801 3.806.005 5.028a.348.348 0 0 1-.242.155l-6.683.988c-.018.002-.035.004-.052.004zm.784-6.522c.364.851.501 2.133.501 2.808 0 .833 0 1.99-.473 2.89l5.654-.836c.536-1.023.408-3.198.001-3.996l-5.683-.866zM7.182 9.097c-.74 0-1.341-.614-1.341-1.368s.602-1.368 1.341-1.368c.755 0 1.369.614 1.369 1.368s-.614 1.368-1.369 1.368zm0-2.035c-.354 0-.641.299-.641.667s.288.667.641.667c.375 0 .669-.293.669-.667s-.294-.667-.669-.667z"></path><path fill="#010101" d="M15.677 13.933a.35.35 0 0 1 0-.7c.053-.087.301-.833.301-2.138 0-1.271-.252-2.028-.38-2.133-.193 0-.311-.146-.311-.339 0-.193.196-.339.39-.339.953 0 1.001 2.342 1.001 2.811 0 .666-.072 2.838-1.001 2.838zM14.006 14.273a.35.35 0 0 1 0-.7c.113-.077.471-.912.471-2.478 0-1.546-.358-2.372-.507-2.456-.193 0-.332-.153-.332-.346 0-.193.175-.347.368-.347.925 0 1.171 1.979 1.171 3.149 0 1.466-.306 3.178-1.171 3.178zM12.364 14.5a.35.35 0 0 1 0-.7c.151-.071.556-.955.556-2.705 0-1.729-.405-2.605-.574-2.678-.193 0-.341-.155-.341-.349s.166-.349.359-.349c.992 0 1.256 2.122 1.256 3.375 0 1.572-.329 3.406-1.256 3.406z"></path></svg>